<?xml version="1.0" encoding="iso-8859-1"?>
<!-- Generator: Adobe Illustrator 19.0.0, SVG Export Plug-In . SVG Version: 6.00 Build 0)  -->
<svg version="1.1" id="Capa_1" xmlns="http://www.w3.org/2000/svg" xmlns:xlink="http://www.w3.org/1999/xlink" x="0px" y="0px"
	 viewBox="0 0 490 490" style="enable-background:new 0 0 490 490;" xml:space="preserve">
<g>
	<path d="M163.174,143.719v202.562L365.975,245L163.174,143.719z M178.486,168.482L331.701,245l-153.215,76.518V168.482z"/>
	<path d="M39.642,445.259h410.716c21.862,0,39.642-17.78,39.642-39.642V84.383c0-21.862-17.78-39.642-39.642-39.642H39.642
		C17.78,44.741,0,62.521,0,84.383v321.234C0,427.479,17.78,445.259,39.642,445.259z M15.313,84.383
		c0-13.413,10.916-24.33,24.329-24.33h410.716c13.413,0,24.329,10.916,24.329,24.33v321.234c0,13.413-10.916,24.329-24.329,24.329
		H39.642c-13.413,0-24.329-10.916-24.329-24.329V84.383z"/>
</g>
<g>
</g>
<g>
</g>
<g>
</g>
<g>
</g>
<g>
</g>
<g>
</g>
<g>
</g>
<g>
</g>
<g>
</g>
<g>
</g>
<g>
</g>
<g>
</g>
<g>
</g>
<g>
</g>
<g>
</g>
</svg>
